PathFileType	4	(X/Y/Z)	Patient4_TMGait_0pt4_01_left_25.trc.trc
DataRate	CameraRate	NumFrames	NumMarkers	Units	OrigDataRate	OrigDataStartFrame	OrigNumFrames
78.212290502793	78.212290502793	5	33	mm	78.212290502793	71	       141
Frame#	Time	Sacral			L.Shoulder			Chest			R.Shoulder			Neck			R.ASIS			L.ASIS			R.Thigh.Superior			R.Thigh.Lateral			R.Thigh.Inferior			R.Patella			L.Thigh.Superior			L.Thigh.Lateral			L.Thigh.Inferior			L.Patella			L.Shank.Superior			L.Shank.Lateral			L.Shank.Inferior			R.Shank.Superior			R.Shank.Lateral			R.Shank.Inferior			R.Heel			R.Midfoot.Superior			R.Midfoot.Lateral			R.Toe			L.Heel			L.Midfoot.Lateral			L.Midfoot.Superior			L.Toe			L.Elbow			L.Wrist			R.Elbow			R.Wrist			
		X1	Y1	Z1	X2	Y2	Z2	X3	Y3	Z3	X4	Y4	Z4	X5	Y5	Z5	X6	Y6	Z6	X7	Y7	Z7	X8	Y8	Z8	X9	Y9	Z9	X10	Y10	Z10	X11	Y11	Z11	X12	Y12	Z12	X13	Y13	Z13	X14	Y14	Z14	X15	Y15	Z15	X16	Y16	Z16	X17	Y17	Z17	X18	Y18	Z18	X19	Y19	Z19	X20	Y20	Z20	X21	Y21	Z21	X22	Y22	Z22	X23	Y23	Z23	X24	Y24	Z24	X25	Y25	Z25	X26	Y26	Z26	X27	Y27	Z27	X28	Y28	Z28	X29	Y29	Z29	X30	Y30	Z30	X31	Y31	Z31	X32	Y32	Z32	X33	Y33	Z33	

71	31.125000000000	825.383972113954	999.552502639683	418.062652363806	1017.647193416913	1425.262716864642	234.701492486097	1099.509755028925	1368.250847764243	410.775627429015	991.782273402245	1450.108865928869	567.146922572949	986.905463170645	1494.035160246923	385.255420423991	1044.304885778131	945.926938062151	559.510776219684	1057.862782175660	965.641488798651	283.324865817330	1119.137076629856	764.199098533707	535.087499519962	1070.453370980886	645.064110362540	609.274905334785	1158.212960419395	604.186388821518	530.229500239163	1188.822728551310	521.830422107885	548.206214012638	1067.889158386350	738.816154949026	313.338958251538	960.751735355506	637.905442211943	243.010484012357	1021.653267653976	548.620263440916	310.664042808267	1008.895595520954	483.462495292816	319.483411922618	980.932466089668	414.929315263001	310.191068119621	887.704038893541	304.009488351374	257.553799511925	931.954727332344	191.337243599195	332.077918075822	1170.610349328513	433.604273153382	560.364661954870	1114.752617559631	324.394678655634	629.305425092021	1178.471214771580	233.956384585148	578.117821458191	1075.571358522516	54.871976301869	557.507779928009	1245.615020690073	114.522792346872	591.305081086619	1162.065836435592	45.802839547901	627.682511256341	1366.940577930079	67.100415700033	611.744187719752	800.725079999880	38.919512878684	378.271314410751	872.381430540273	34.748734034767	295.686041837640	956.291067273861	95.689087925330	320.772864227349	1084.424776427122	43.460861337640	289.637938069215	1059.117399400230	1091.834167958013	88.178968290859	1277.615941671875	948.473955302309	112.870370343730	867.800214447280	1137.965818587904	703.131178801367	884.073695733263	883.039595000442	757.739077954747	
72	31.137785714286	827.261639510742	997.925084419191	419.781169528315	1017.275836191162	1424.382149745773	236.920146280294	1099.337994022431	1367.885032114345	413.083329358585	990.917062092416	1449.076191001486	569.385547473070	986.035276748706	1492.956194379580	387.426685342662	1046.213747899775	944.468057152521	561.264168738729	1060.341123999504	965.210840310361	285.009174509091	1120.790033512978	761.793649389740	536.943952138270	1070.123241232102	642.310961463802	609.723890081613	1158.423960752448	601.599038220208	531.300054695875	1187.747976425522	519.012035240758	548.446253157488	1068.002236451493	737.592854259980	314.260877962108	959.427062832739	637.829805017162	243.869861750326	1019.319086999382	547.833026715043	311.263881560159	1005.969504965145	482.695922935542	319.986183323112	977.585376647055	414.510130309820	310.598779886657	883.599141435422	304.207058371174	257.846730547925	927.349626726669	191.163100799252	332.196911067303	1169.178073929171	430.474800876386	560.328063684930	1112.128563283897	321.369437747323	628.323708515597	1175.555837547704	230.794629115880	577.148356850591	1071.668682650837	52.450830903021	555.794781429818	1241.714603386974	111.739685136896	589.891457412270	1157.807736847105	43.704729914840	626.426416122112	1362.875905533065	64.041848690103	611.065713849463	795.574817361463	38.928195684732	378.239706627643	867.216490733422	34.749548261732	295.661958067316	951.115896185520	95.683476903525	320.778192769255	1079.251253513211	43.384027647292	289.627736297627	1061.226885393288	1091.471633808869	90.126377366628	1282.057695139162	951.957850584606	115.035597611817	867.157110013488	1136.338014471164	703.865389992440	886.017797495205	881.207894568592	757.212656145910	
73	31.150571428571	829.249937367352	996.226556913266	421.708318352645	1016.896419925544	1423.436714590474	239.298011203029	1099.229123782934	1367.471806977818	415.524617890626	990.155259023779	1447.931350621128	571.820467476517	985.206852838696	1491.818166204980	389.787554088201	1048.306944036831	942.995523771694	563.111452215234	1062.827333737112	964.684979780934	286.841416199560	1122.761175811140	759.451695062892	538.790150440098	1070.116114318739	639.622540408759	610.034930177751	1159.016043003020	599.155565903825	532.241025993742	1186.977563052507	516.117193602836	548.479586740524	1068.369260050349	736.324758638866	315.280013118194	958.424840515429	637.659153503210	244.924661727639	1017.396697993092	546.983789779909	312.055681409767	1003.474499198374	481.780254043916	320.706503976380	974.621810491470	413.952166603856	311.189923577514	879.745491835488	304.375845363854	258.310230895791	922.847379726029	190.889886018226	332.421973950794	1167.802074364665	427.233439458413	560.114919349841	1109.262787372954	318.436758329214	627.251186198316	1172.004759919991	227.500779365950	576.003602871498	1066.542743467256	50.146602827754	554.192600905699	1236.689784171993	108.959679195302	588.324142229813	1152.380951687509	41.821334604718	625.245981100918	1357.686530628633	60.927923852234	610.227711465198	790.417800326654	38.862641831701	378.219637848000	862.051133313850	34.723244032587	295.650186781478	945.926200086216	95.667087838487	320.827900195597	1074.087231954300	43.304333124445	289.616318707069	1063.050211189754	1090.937487636892	92.332909444696	1285.939645054672	954.902671097451	117.243575054106	867.201196897241	1134.339801107987	704.838972671874	888.946174195274	879.014418875597	756.671555523076	
74	31.163357142857	831.312752709708	994.510304293313	423.819512171914	1016.542563521746	1422.470765013523	241.838107114730	1099.202816774602	1367.029776091474	418.100391530721	989.526751006426	1446.707923712412	574.449133216125	984.462661863252	1490.664992129660	392.342398912304	1050.544736062013	941.565447913061	565.054474320643	1065.265350976585	964.081030134253	288.831016721517	1124.993198687046	757.248962191008	540.596546501023	1070.439570039174	637.103549689498	610.242497809808	1159.948111445591	596.927325789821	533.048898358726	1186.513450911826	513.258632219902	548.322545187790	1069.021626091992	735.043846181854	316.427746848409	957.819439042863	637.371367056547	246.207252893921	1015.986985751211	546.067797363251	313.085531022518	1001.530587052625	480.686845140717	321.679142410572	972.124651313707	413.224993804605	312.002297333157	876.200613120270	304.517588093259	258.971777008156	918.466799166712	190.499221904738	332.766564796993	1166.569287205281	424.021833002433	559.762682288838	1106.414575600128	315.695515074354	626.202151187962	1168.118184817214	224.230545219052	574.757750308570	1060.649277336411	48.030287054940	552.811161680386	1230.952522207032	106.347174769290	586.694610818767	1146.264144247913	40.228948012135	624.217428709261	1351.824804892387	58.010362917509	609.277296376561	785.251879122145	38.717160304919	378.213221702541	856.889459031429	34.662047475611	295.656784089535	940.732685645473	95.634008838666	320.923664969093	1068.944976307404	43.209025966886	289.602948707538	1064.579185710187	1090.264298829833	94.798358298021	1289.243844984354	957.278038856011	119.488079398191	867.947830419155	1132.023528828955	706.080125075878	892.843837906452	876.522859949513	756.151405989334	
75	31.176142857143	833.406653042738	992.838871878238	426.088630932765	1016.248040329252	1421.541155588215	244.540375873570	1099.276624376946	1366.585621503688	420.807356137551	989.061100322815	1445.452003422686	577.263398422989	983.843173692571	1489.549782381120	395.091661118400	1052.881620681106	940.241872070426	567.094734919575	1067.602092677328	963.426026966978	290.978806844475	1127.430311049913	755.275022833050	542.330913485149	1071.109485102692	634.863140670396	610.396462766302	1161.174182859772	594.985610526180	533.728892299249	1186.358751833183	510.557892003333	548.017988712151	1069.980884289553	733.791980637063	317.737382703110	957.679770623559	636.949421770960	247.745233817558	1015.196521583010	545.086410152910	314.388137589126	1000.269361991754	479.392682818762	322.917446924188	970.176361152631	412.306045634066	313.058948839782	873.019226408762	304.646320127508	259.854281215902	914.235662449201	189.986616948094	333.234496099503	1165.557231241608	420.983051827765	559.325704059433	1103.811215019900	313.246198185898	625.287963123709	1164.164589629317	221.140477988363	573.496502260850	1054.395386604205	46.186211523689	551.718482008455	1224.871799517179	104.036093222913	585.108683448753	1139.868203587291	38.975386029238	623.394179956175	1345.680123920067	55.468298657192	608.296666931779	780.077070011545	38.506477332803	378.220720976175	851.737739886211	34.565428590841	295.687447633424	935.553853674173	95.580429565458	321.060641586563	1063.838060834094	43.083664234029	289.585191730875	1065.802707491029	1089.497174296200	97.523267734203	1291.946204612752	959.061975684048	121.764465784568	869.403937781250	1129.456812864344	707.603985747019	897.690438428635	873.815868683241	755.686464424468	
